<?xml version="1.0" ?>
<!-- Uploaded to: SVG Repo, www.svgrepo.com, Generator: SVG Repo Mixer Tools -->
<svg width="800px" height="800px" viewBox="0 0 24 24" version="1.1" xml:space="preserve" xmlns="http://www.w3.org/2000/svg" xmlns:xlink="http://www.w3.org/1999/xlink">
<style type="text/css">
	.st0{opacity:0.2;fill:none;stroke:#000000;stroke-width:5.000000e-02;stroke-miterlimit:10;}
</style>
<g id="Layer_Grid"/>
<g id="Layer_2">
<path d="M20.4,15.6c-1-1.3-2.3-2.2-3.9-2.8l-1.4-7.1c-0.1-0.3-0.3-0.6-0.6-0.7l-2.7-1.2c-0.3-0.1-0.6-0.1-0.9,0.1   c-0.3,0.2-0.5,0.5-0.5,0.8L10,10.9l-1.8-0.5L7.6,7.8C7.6,7.5,7.4,7.2,7.1,7.1L5.2,6.3C4.9,6.1,4.6,6.1,4.3,6.3   C4,6.5,3.8,6.8,3.8,7.1l-0.1,3c-0.1,1.8,0.9,3.5,2.6,4.3L18,19.7c0.3,0.1,0.6,0.2,1,0.2c0.5,0,1.1-0.2,1.5-0.5c0,0,0,0,0,0   c0.5-0.4,0.8-1,0.9-1.6c0.1-0.6-0.1-1.3-0.5-1.8L20.4,15.6z M19.2,17.9c-0.1,0.1-0.3,0.1-0.4,0L7.1,12.6c-0.9-0.4-1.5-1.4-1.4-2.4   l0.1-1.6l0.6,2.7c0.1,0.4,0.3,0.6,0.7,0.7l3.6,1c0.3,0.1,0.6,0,0.9-0.1c0.2-0.2,0.4-0.4,0.4-0.8l0.4-6.1l0.9,0.4l1.4,7.2   c0.1,0.4,0.3,0.7,0.7,0.8c1.4,0.4,2.6,1.2,3.5,2.3l0.4,0.5c0.1,0.1,0.1,0.2,0.1,0.3C19.3,17.7,19.3,17.8,19.2,17.9z"/>
</g>
</svg>