<?xml version="1.0" ?>
<!-- Uploaded to: SVG Repo, www.svgrepo.com, Generator: SVG Repo Mixer Tools -->
<svg width="800px" height="800px" viewBox="0 0 24 24" version="1.1" xml:space="preserve" xmlns="http://www.w3.org/2000/svg" xmlns:xlink="http://www.w3.org/1999/xlink">
<style type="text/css">
	.st0{opacity:0.2;fill:none;stroke:#000000;stroke-width:5.000000e-02;stroke-miterlimit:10;}
</style>
<g id="Layer_Grid"/>
<g id="Layer_2">
<path d="M21.5,7.5C21,7,20.4,6.8,19.8,6.9l-0.6,0C17.5,7,16,7.5,14.7,8.4l-6.6-3c-0.3-0.1-0.6-0.1-0.9,0L4.6,6.9   C4.3,7.1,4.1,7.4,4.1,7.7s0.1,0.6,0.4,0.9l4.8,4l-1.5,1.2l-2.4-1c-0.3-0.1-0.6-0.1-0.9,0l-1.7,1c-0.3,0.2-0.5,0.5-0.5,0.8   s0.1,0.7,0.4,0.9L5,17.3c0.8,0.6,1.8,1,2.8,1c0.8,0,1.5-0.2,2.2-0.6l11.1-6.3c0.8-0.4,1.2-1.3,1.2-2.2c0,0,0,0,0,0   C22.2,8.5,22,7.9,21.5,7.5z M20.1,9.6L9,15.9c-0.9,0.5-2,0.4-2.8-0.2l-1.2-1l0,0l2.5,1.1c0.3,0.1,0.7,0.1,1-0.1l3-2.3   c0.2-0.2,0.4-0.5,0.4-0.8c0-0.3-0.1-0.6-0.4-0.8L6.8,7.9l0.9-0.5l6.6,3.1c0.3,0.2,0.7,0.1,1-0.1c1.1-0.9,2.5-1.4,3.9-1.5l0.6,0   c0.1,0,0.2,0,0.3,0.1c0,0,0.1,0.1,0.1,0.3C20.3,9.4,20.2,9.5,20.1,9.6z"/>
</g>
</svg>