<?xml version="1.0" standalone="no"?>
<!DOCTYPE svg PUBLIC "-//W3C//DTD SVG 20010904//EN"
 "http://www.w3.org/TR/2001/REC-SVG-20010904/DTD/svg10.dtd">
<svg version="1.0" xmlns="http://www.w3.org/2000/svg"
 width="512.000000pt" height="512.000000pt" viewBox="0 0 512.000000 512.000000"
 preserveAspectRatio="xMidYMid meet">

<g transform="translate(0.000000,512.000000) scale(0.100000,-0.100000)"
fill="#cc2c21" stroke="none">
<path d="M4167 3694 c-187 -29 -310 -69 -557 -184 -458 -213 -2423 -1100
-2437 -1100 -9 0 -103 45 -209 99 l-193 100 -203 -96 c-112 -52 -213 -99 -226
-104 -22 -9 -17 -15 85 -103 111 -97 146 -137 226 -264 49 -76 107 -123 177
-142 79 -22 267 -5 700 65 344 56 870 165 878 183 140 308 221 468 242 480
108 56 869 392 889 392 46 -1 88 -52 77 -94 -3 -13 -55 -112 -116 -220 -61
-109 -109 -200 -107 -202 4 -5 317 136 647 290 253 119 661 329 797 409 149
89 271 182 279 212 12 49 -71 125 -209 190 l-75 36 -231 -115 c-141 -71 -243
-116 -261 -116 -57 0 -94 64 -67 116 12 22 48 45 157 99 126 63 138 71 113 76
-51 12 -286 7 -376 -7z"/>
<path d="M2190 3524 c-80 -42 -148 -79 -152 -83 -4 -4 107 -58 247 -120 234
-104 258 -113 283 -102 123 53 499 227 497 229 -1 1 -157 34 -346 72 -189 39
-353 72 -364 75 -12 2 -76 -25 -165 -71z"/>
<path d="M158 2759 l-158 -79 78 -68 c42 -37 84 -73 93 -79 13 -11 48 2 209
77 107 50 195 92 198 95 3 3 -253 136 -260 134 -2 0 -74 -36 -160 -80z"/>
<path d="M3036 2621 c-255 -117 -281 -131 -297 -162 -36 -71 -480 -1042 -477
-1044 2 -1 101 45 221 104 l218 106 295 525 c327 581 338 600 327 599 -5 0
-134 -58 -287 -128z"/>
</g>
</svg>
