<?xml version="1.0" encoding="iso-8859-1"?>
<!-- Uploaded to: SVG Repo, www.svgrepo.com, Generator: SVG Repo Mixer Tools -->
<!DOCTYPE svg PUBLIC "-//W3C//DTD SVG 1.1//EN" "http://www.w3.org/Graphics/SVG/1.1/DTD/svg11.dtd">
<svg fill="#000000" height="800px" width="800px" version="1.1" id="Capa_1" xmlns="http://www.w3.org/2000/svg" xmlns:xlink="http://www.w3.org/1999/xlink" 
	 viewBox="0 0 297 297" xml:space="preserve">
<g>
	<path d="M295.547,151.218l-7.821-25.42v-22.852c0-11.722-6.237-22.012-15.565-27.733l-3.574-11.615
		c-2.554-8.3-8.187-15.109-15.862-19.172c-7.676-4.065-16.475-4.895-24.772-2.34l-92.136,28.349H41.772
		c-17.926,0-32.51,14.584-32.51,32.511v10.585c-8.028,8.247-11.438,20.511-7.821,32.265l7.821,25.42v22.852
		c0,11.722,6.237,22.012,15.564,27.733l3.574,11.617c4.296,13.96,17.193,22.951,31.091,22.951c3.159,0,6.37-0.464,9.543-1.441
		l92.136-28.349h94.044c17.927,0,32.511-14.584,32.511-32.511v-10.582c2.144-2.201,4.003-4.703,5.481-7.495
		C297.27,168.315,298.1,159.517,295.547,151.218z M233.402,59.799c1.358-0.418,2.747-0.624,4.128-0.624
		c2.25,0,4.479,0.548,6.523,1.631c3.299,1.747,5.721,4.674,6.82,8.242l0.427,1.387h-52.465L233.402,59.799z M63.585,237.214
		c-7.367,2.27-15.204-1.883-17.471-9.248l-0.427-1.388h52.465L63.585,237.214z M269.192,194.067c0,7.707-6.27,13.978-13.978,13.978
		H41.772c-7.707,0-13.977-6.27-13.977-13.978v-91.121c0-7.707,6.27-13.978,13.977-13.978h213.442c7.707,0,13.978,6.27,13.978,13.978
		V194.067z"/>
	<path d="M148.493,135.07h-22.108l-23.696-23.696c-3.005-3.005-7.669-3.58-11.315-1.396c-3.646,2.185-5.338,6.569-4.106,10.637
		l4.381,14.456H72.79l-5.708-7.849c-3.312-4.553-9.686-5.558-14.239-2.249c-4.553,3.311-5.56,9.687-2.249,14.239l6.76,9.295
		l-6.76,9.295c-3.311,4.553-2.304,10.928,2.249,14.239c1.81,1.316,3.908,1.95,5.987,1.95c3.15,0,6.257-1.456,8.252-4.199
		l5.708-7.849h18.858l-4.381,14.456c-1.233,4.068,0.46,8.452,4.106,10.637c1.479,0.886,3.125,1.318,4.76,1.318
		c2.396,0,4.769-0.928,6.555-2.714l23.696-23.696h22.108c7.421,0,13.437-6.016,13.437-13.437S155.914,135.07,148.493,135.07z"/>
	<path d="M209.651,142.02c-3.837,0-6.95,3.113-6.95,6.95c0,3.836,3.113,6.95,6.95,6.95c3.845,0,6.95-3.114,6.95-6.95
		C216.601,145.133,213.496,142.02,209.651,142.02z"/>
	<path d="M209.651,120.707c-3.837,0-6.95,3.113-6.95,6.95c0,3.836,3.113,6.95,6.95,6.95c3.845,0,6.95-3.114,6.95-6.95
		C216.601,123.82,213.496,120.707,209.651,120.707z"/>
	<path d="M209.651,99.393c-3.837,0-6.95,3.113-6.95,6.95c0,3.836,3.113,6.95,6.95,6.95c3.845,0,6.95-3.114,6.95-6.95
		C216.601,102.506,213.496,99.393,209.651,99.393z"/>
	<path d="M209.651,184.647c-3.837,0-6.95,3.113-6.95,6.95c0,3.836,3.113,6.95,6.95,6.95c3.845,0,6.95-3.114,6.95-6.95
		C216.601,187.76,213.496,184.647,209.651,184.647z"/>
	<path d="M209.651,163.334c-3.837,0-6.95,3.113-6.95,6.95c0,3.836,3.113,6.95,6.95,6.95c3.845,0,6.95-3.114,6.95-6.95
		C216.601,166.447,213.496,163.334,209.651,163.334z"/>
</g>
</svg>